<?xml version="1.0" standalone="no"?>
<!DOCTYPE svg PUBLIC "-//W3C//DTD SVG 20010904//EN"
 "http://www.w3.org/TR/2001/REC-SVG-20010904/DTD/svg10.dtd">
<svg version="1.0" xmlns="http://www.w3.org/2000/svg"
 width="1200.000000pt" height="1200.000000pt" viewBox="0 0 1200.000000 1200.000000"
 preserveAspectRatio="xMidYMid meet">
<metadata>
Created by potrace 1.11, written by Peter Selinger 2001-2013
</metadata>
<g transform="translate(0.000000,1200.000000) scale(0.100000,-0.100000)"
fill="#000000" stroke="none">
<path d="M1705 11284 c-16 -8 -38 -23 -49 -32 -42 -38 -92 -153 -112 -257 -4
-22 -9 -2166 -10 -4765 -3 -4887 -4 -4723 31 -4890 11 -50 71 -154 105 -181
77 -61 154 -34 215 75 20 37 49 113 48 126 -1 3 3 12 7 20 21 39 24 246 24
1675 l1 1530 707 3 708 2 0 -1212 c0 -667 2 -1224 4 -1238 3 -14 7 -44 10 -67
27 -213 144 -442 308 -605 68 -68 162 -143 208 -165 14 -7 40 -22 58 -33 17
-11 32 -16 32 -12 0 4 4 1 8 -6 5 -7 17 -14 28 -16 10 -2 39 -13 64 -23 65
-28 141 -47 240 -60 93 -13 301 -6 351 11 8 3 30 8 49 11 46 8 53 9 65 16 13
8 64 20 69 17 2 -2 12 5 23 14 10 10 29 19 41 21 12 2 28 9 34 15 7 7 16 12
21 12 27 0 192 124 267 199 129 130 214 268 270 440 54 165 53 146 55 1546 1
715 5 1309 8 1320 22 87 31 113 57 169 66 142 174 250 320 318 80 38 165 62
181 53 5 -4 9 -2 9 3 0 12 171 8 236 -6 76 -16 151 -49 224 -97 169 -113 277
-290 296 -490 3 -33 7 -636 8 -1340 l2 -1280 23 -65 c103 -290 307 -271 386
36 17 64 18 159 20 1364 2 712 6 1311 9 1330 16 78 29 118 63 185 119 237 351
376 614 370 176 -4 317 -65 444 -189 116 -115 185 -247 202 -390 3 -28 7 -636
8 -1351 1 -715 5 -1311 8 -1325 4 -14 12 -50 18 -80 18 -89 103 -300 121 -300
4 0 8 -5 8 -11 0 -46 207 -273 315 -346 70 -47 233 -131 268 -139 4 -1 8 -2
10 -4 1 -1 9 -3 17 -5 8 -1 44 -10 80 -19 150 -37 363 -40 478 -7 18 5 32 8
32 6 0 -2 44 11 99 30 133 46 224 95 331 181 74 59 148 134 207 214 42 55 123
203 138 250 4 14 8 27 10 30 10 25 16 43 30 97 8 34 15 66 14 70 -1 4 -1 10 1
13 11 30 14 122 14 530 1 422 -2 512 -17 570 -17 69 -30 101 -43 115 -8 8 -12
15 -9 15 14 0 -49 66 -83 87 -77 48 -172 -1 -224 -117 -50 -109 -51 -117 -53
-615 -2 -342 -6 -487 -16 -530 -15 -71 -16 -74 -19 -80 -1 -3 -3 -8 -4 -12 -6
-29 -61 -128 -99 -178 -125 -165 -323 -265 -527 -265 -320 0 -594 223 -661
537 -9 44 -13 378 -14 1368 -2 1288 -2 1312 -23 1405 -26 123 -66 229 -114
309 -21 34 -38 65 -38 67 0 23 -154 195 -233 260 -118 97 -334 199 -467 220
-19 3 -38 8 -41 10 -4 2 -51 7 -105 10 -104 7 -119 12 -130 47 -12 38 -75 122
-149 201 -126 134 -342 254 -505 280 -19 3 -48 8 -64 11 -52 10 -175 12 -238
3 -89 -12 -132 -21 -202 -44 -91 -29 -220 -98 -296 -159 -94 -75 -238 -248
-263 -317 -5 -14 -18 -18 -54 -19 -161 -4 -375 -66 -500 -146 -29 -18 -57 -33
-63 -33 -5 0 -10 -3 -10 -7 0 -5 -17 -19 -38 -33 -20 -13 -75 -63 -122 -111
-96 -97 -110 -114 -110 -129 0 -5 -4 -10 -9 -10 -9 0 -104 -165 -107 -186 -1
-7 -9 -27 -18 -45 -8 -17 -18 -46 -22 -65 -3 -19 -10 -34 -16 -34 -5 0 -7 -4
-4 -8 3 -5 1 -24 -4 -43 -22 -79 -24 -147 -27 -829 -7 -1721 -9 -1956 -15
-1976 -3 -11 -12 -41 -19 -65 -7 -24 -18 -51 -26 -60 -7 -8 -13 -23 -13 -32 0
-9 -4 -19 -10 -22 -5 -3 -16 -20 -25 -38 -18 -38 -92 -118 -155 -170 -65 -52
-181 -106 -264 -124 -341 -72 -664 115 -783 452 l-28 80 -2 2085 c-3 2496 -7
3155 -16 3195 -57 229 -156 331 -262 267 -58 -36 -124 -163 -140 -272 -3 -25
-8 -54 -10 -65 -2 -11 -4 -580 -4 -1265 l-1 -1246 -707 0 -708 0 -1 3036 c0
1669 -4 3059 -7 3088 -10 79 -27 140 -57 208 -29 64 -92 134 -121 134 -9 0
-23 2 -31 5 -7 3 -26 -2 -43 -11z"/>
<path d="M2780 9309 c-138 -42 -217 -221 -152 -348 48 -96 119 -143 222 -147
107 -4 188 43 237 141 82 160 -29 351 -210 361 -34 2 -78 -1 -97 -7z"/>
<path d="M10620 4140 c-113 -21 -193 -109 -205 -226 -15 -148 108 -281 256
-277 105 3 217 82 233 163 1 3 5 11 9 18 10 15 12 85 3 128 -25 129 -164 219
-296 194z"/>
<path d="M7110 1600 c-208 -37 -289 -282 -140 -430 190 -191 497 0 418 261
-13 45 -88 129 -132 148 -45 19 -107 28 -146 21z"/>
</g>
</svg>
